<svg width="1080" height="1080" viewBox="0 0 1080 1080" fill="none" xmlns="http://www.w3.org/2000/svg">
<path d="M493.45 633.45C494.64 630.14 499.22 626.27 502.75 625.49C498.74 626.19 494.75 629.61 493.45 633.45ZM835.48 543.23C835.51 520.75 835.64 498.28 835.92 475.82C835.62 498.85 835.5 521.15 835.48 543.23ZM835.86 704.69C835.63 711.05 834.25 717.33 831.75 723.19C832.98 720.46 834.14 717.68 835.24 714.85C835.83 713.33 835.87 711.52 835.87 709.85C835.87 708.13 835.87 706.41 835.86 704.69Z" fill="white"/>
<path d="M891.42 711.98C891.34 736.63 879.57 758.36 865.46 778.37C855.15 793 841.6 803.74 826.11 812.57C750.36 855.72 675.33 900.18 598.87 942.03C598.25 942.37 597.62 942.7 597 943.03C560.63 962.13 517.04 961.71 480.94 941.9C470.62 936.24 460.3 930.55 450.01 924.84C435.76 916.93 421.54 908.98 407.35 900.98C402.44 898.22 397.54 895.45 392.65 892.67C387.75 889.9 382.86 887.12 377.96 884.33C333.94 859.26 290.18 833.73 246.7 807.76C208.75 785.09 188.93 748.47 188.65 704.14C188.12 617.16 189.4 530.16 190.07 443.17C190.41 398.78 206.41 362.02 244.97 337.89C282.27 314.55 320.37 292.46 358.15 269.89C359.78 268.91 361.77 268.53 364.34 267.59C358.82 287.67 352.52 306.22 348.9 325.29C346.43 338.24 340.82 346.41 329.09 351.99C315.86 358.27 303.18 365.74 290.42 372.97C269.28 384.95 251.85 400.39 245.36 424.96C243.94 430.36 244.3 436.3 244.29 441.99C244.22 531.01 243.96 620.03 244.6 709.04C244.6 709.31 244.61 709.59 244.62 709.85C244.96 722.06 249.33 726.92 253.76 734.44C303.45 818.56 402.04 795.62 439.57 742.02C443.94 735.78 448.18 729.46 452.24 723.06C454.28 719.87 456.27 716.65 458.21 713.41C473.12 688.55 485.36 662.33 493.29 633.93C493.33 633.77 493.38 633.61 493.45 633.45C494.79 629.49 498.98 625.99 503.11 625.42C503.23 625.4 503.35 625.38 503.47 625.37C518.32 623.93 533.32 623.65 548.26 623.59C558.01 623.54 567.89 623.89 577.45 625.53C581.03 626.14 585.88 630.42 586.77 633.9C594.2 662.86 607.82 689.02 622.78 714.49C630.04 726.85 637.69 739.36 647.25 749.91C678.53 784.46 718.04 797.13 763.01 785.68C764.25 785.36 765.47 785.03 766.68 784.67C767.15 784.54 767.62 784.39 768.08 784.25C768.64 784.08 769.19 783.9 769.73 783.72C770.28 783.54 770.82 783.36 771.36 783.17C771.87 782.99 772.39 782.81 772.89 782.62C774.06 782.19 775.21 781.74 776.35 781.27C777.29 780.89 778.21 780.49 779.13 780.07C779.65 779.83 780.17 779.59 780.69 779.34C781.69 778.88 782.67 778.39 783.64 777.88C783.93 777.73 784.22 777.58 784.5 777.43C784.86 777.24 785.21 777.05 785.56 776.86C786.11 776.55 786.66 776.25 787.2 775.93C787.58 775.72 787.96 775.5 788.33 775.27C790.51 773.97 792.62 772.59 794.66 771.13C795.09 770.83 795.52 770.51 795.95 770.19C796.37 769.88 796.8 769.56 797.22 769.23C797.65 768.91 798.07 768.59 798.48 768.25C798.84 767.96 799.2 767.67 799.56 767.38C800.13 766.91 800.7 766.44 801.25 765.96C801.61 765.65 801.98 765.33 802.33 765.01C803.07 764.37 803.79 763.71 804.49 763.05C805.15 762.42 805.8 761.79 806.44 761.15C806.55 761.05 806.66 760.94 806.77 760.83C807.23 760.36 807.69 759.89 808.14 759.41C808.69 758.85 809.23 758.28 809.74 757.7C809.88 757.56 810.01 757.42 810.13 757.28C810.71 756.64 811.29 755.99 811.85 755.33C813.44 753.49 814.97 751.58 816.43 749.62C816.98 748.91 817.51 748.18 818.02 747.45C818.12 747.33 818.21 747.2 818.29 747.07C818.84 746.32 819.36 745.55 819.88 744.78C820 744.61 820.12 744.44 820.23 744.26C820.62 743.69 820.99 743.11 821.36 742.53C821.7 742.02 822.02 741.51 822.34 740.99C822.56 740.65 822.77 740.31 822.97 739.97C823.27 739.49 823.56 739 823.85 738.51C824.17 737.98 824.48 737.45 824.78 736.91C825.01 736.54 825.22 736.16 825.42 735.79C825.66 735.39 825.88 734.98 826.1 734.58C826.44 733.98 826.76 733.37 827.09 732.76C827.5 731.99 827.91 731.21 828.31 730.42C828.71 729.63 829.11 728.82 829.51 728.01C830.09 726.82 830.65 725.62 831.21 724.41C831.22 724.39 831.23 724.37 831.24 724.35C834.06 718.17 835.61 711.47 835.86 704.69C835.88 704.47 835.88 704.24 835.89 704.02C835.97 700.79 835.91 698.47 835.86 697.29C835.86 651.2 835.54 608.62 835.48 565.85C835.47 558.32 835.47 550.79 835.48 543.23C835.5 521.15 835.62 498.85 835.92 475.82V475.58C835.98 471.16 836.04 466.75 836.11 462.34C836.18 457.88 836.26 453.39 836.34 448.86C837 413.78 820.68 391.87 793.28 375.17C777.82 365.75 761.72 357.37 745.7 348.91C737.91 344.81 734.37 338.95 732.34 330.29C727.74 310.74 721.58 291.56 716.08 272.22C715.78 271.17 715.68 270.07 715.29 267.81C718.03 268.66 720.22 268.9 721.94 269.93C760.21 292.82 798.84 315.13 836.52 338.94C873.48 362.28 889.41 397.96 889.87 440.63C890.86 531.08 891.72 621.53 891.42 711.98Z" fill="white"/>
<path d="M708.39 478.35C705.53 474.82 702.29 470.47 701.86 466.24C698.56 433.68 697.37 400.84 692.75 368.49C683.56 304.19 661.81 244.38 621.92 192.35C600.6 164.54 575.3 140.76 544.11 123.98C542.09 122.9 538.39 122.49 536.69 123.62C523.07 132.67 508.82 141.09 496.5 151.72C453.18 189.11 424.84 236.62 406.32 290.28C386.93 346.44 379.48 404.56 378.25 463.71C378.17 467.78 376.3 472.47 373.77 475.71C364.61 487.39 357.16 499.85 354.24 514.52C346.6 552.89 353.22 589.86 366.03 626.07C369.69 636.42 371.59 636.67 379.92 629.93C421.14 596.6 468.27 578.04 521.06 574.08C571.41 570.3 618.94 580.51 663.05 605.06C676.02 612.29 688.01 621.35 700.1 630.05C708.4 636.01 710.03 636.07 713.39 627.63C723.82 601.44 728.08 574.05 729.26 547.15C728.86 521.48 724.47 498.18 708.39 478.35ZM586.2 315.41C584.65 339.23 565.85 358.81 540.35 358.3C515.19 357.79 491.89 340.91 494.13 311.71C491.82 284.18 517.28 263.62 540.57 264C562.09 264.34 588.35 282.6 586.2 315.41Z" fill="white"/>
</svg>
